<svg xmlns="http://www.w3.org/2000/svg" viewBox="0 0 190.71 69.13">
  <title>ssslogosss</title>
  <g id="b24b1e29-9d32-48f3-8fed-ceef7ac61553" data-name="Слой 2">
    <g id="b454c9bd-59ef-48c4-8ab6-4dd251523f85" data-name="Слой 1">
      <g>
        <polygon points="0 45.91 48.59 0 65.54 0 65.54 69.13 47.62 69.13 47.62 59.18 17.17 59.18 34.8 42.54 47.89 42.54 47.89 24.74 0 69.13 0 45.91" style="fill: #ed1c24;fill-rule: evenodd"/>
        <polygon points="69.5 0 131.84 0 114.75 17.06 102.51 17.06 102.51 69.13 84.31 69.13 84.31 17.06 69.5 17.06 69.5 0" style="fill: #ed1c24;fill-rule: evenodd"/>
        <path d="M120.33,16.79,137.27,0h53.44L173.65,17.06H137.52V52.34H159a4.23,4.23,0,0,0,4.23-4.21v-.67A4.23,4.23,0,0,0,159,43.25H141.22V26.46H166s14.17,3,14.17,21.34-14.23,21.33-14.23,21.33H120.3Z" style="fill: #ed1c24;fill-rule: evenodd"/>
      </g>
    </g>
  </g>
</svg>
