<svg id="Layer_1" data-name="Layer 1" xmlns="http://www.w3.org/2000/svg" viewBox="0 0 191.79 72.85" preserveAspectRatio="xMinYMid"><defs><style>.cls-1{fill:#f3ce11;}.cls-2{fill:#222220;}</style></defs><title>logo</title><polygon class="cls-1" points="131.8 34.43 0 34.43 0.08 0.02 131.88 0.02 131.8 34.43"/><path class="cls-2" d="M222.69,351.77a3.37,3.37,0,0,1-.85-0.1,9.79,9.79,0,0,1-1.05-.29q-5.2-1.1-5.2-2.7a2,2,0,0,1,.9-1.8,6,6,0,0,1,3-.6,5.4,5.4,0,0,1,3.3.9l0.8,0.8a3.17,3.17,0,0,0,2.9,1.7h4.3a8.8,8.8,0,0,0-3.1-6.5,13.61,13.61,0,0,0-8.3-2.3,12.46,12.46,0,0,0-7.8,2.3,8,8,0,0,0-2.9,6.3,6.15,6.15,0,0,0,2,4.81q1.8,1.79,7.1,3.1a19.44,19.44,0,0,0,2.7.6q4.2,0.9,4.2,2.7a2.12,2.12,0,0,1-1.2,1.9,6.48,6.48,0,0,1-3.1.7,7.15,7.15,0,0,1-4-1,3.7,3.7,0,0,1-1.5-3h-6.8v0.3a8,8,0,0,0,2.9,6.7c1.86,1.53,4.71,2.3,8.5,2.3q6,0,9-2.2a8,8,0,0,0,3.2-6.8,6.32,6.32,0,0,0-1.9-4.81Q227.79,353.07,222.69,351.77Zm27.44-.7v17H257v-17a4.1,4.1,0,0,1,1.45-3.5,5.34,5.34,0,0,1,6.5,0,4.09,4.09,0,0,1,1.45,3.5v13.6a3.26,3.26,0,0,0,3.4,3.4h3.5v-15.6q0-7-3.7-9.3a15,15,0,0,0-8.1-2.3,19.79,19.79,0,0,0-4.25.65,8.91,8.91,0,0,0-3.55,1.84,9.47,9.47,0,0,0-4-2,20,20,0,0,0-4.49-.5,15.6,15.6,0,0,0-7.86,2.5q-3.54,2.31-3.55,9.11v15.6h7v-17a4.16,4.16,0,0,1,1.4-3.5,5,5,0,0,1,3.19-1.1,5.23,5.23,0,0,1,3.26,1.1A4.11,4.11,0,0,1,250.13,351.07Zm37,0.3a15,15,0,0,0-1.6.25,6.31,6.31,0,0,1-1.2.15,14.13,14.13,0,0,0-6.25,2.4q-2.46,1.81-2.45,6,0,4.51,2.7,6.45a10.46,10.46,0,0,0,6.3,2,39.44,39.44,0,0,0,4.15-.25,12.34,12.34,0,0,0,4.45-1.35,8.84,8.84,0,0,0,3.45-3.25,11.49,11.49,0,0,0,1.45-6.25v-9.1a6.42,6.42,0,0,0-2.91-5.6q-2.8-1.9-8.4-1.9-5,0-7.7,2.3a7.72,7.72,0,0,0-2.8,5.1h6.7a2.72,2.72,0,0,1,1.6-1.5,7.22,7.22,0,0,1,2.5-.4,10.43,10.43,0,0,1,2.85.45,1.9,1.9,0,0,1,1.55,2C291.55,350.11,290.09,351,287.15,351.37Zm4.5,3.3v2.5a5.55,5.55,0,0,1-6,6,3.76,3.76,0,0,1-2.6-.81,3.24,3.24,0,0,1-.9-2.4,4.09,4.09,0,0,1,.7-2.2,5.88,5.88,0,0,1,2.6-1.3l2.3-.5A18.82,18.82,0,0,0,291.66,354.67Zm21.81-6.1h2.3v-7.1h-1a19.55,19.55,0,0,0-5.24.7,12.3,12.3,0,0,0-4.45,2.19,10.92,10.92,0,0,0-3.15,4.25,16.46,16.46,0,0,0-1.15,6.55v12.9h7v-13.7a6,6,0,0,1,1.4-4.4A5.82,5.82,0,0,1,313.47,348.57Zm8.67,19.4a51.54,51.54,0,0,0,7.15.1v-5.2h-2.1c-1.34,0-2-.57-2-1.7v-14.8h0.7a3.38,3.38,0,0,0,2.4-1,3.25,3.25,0,0,0,1-2.45v-1.4h-4.1v-4.5a3.29,3.29,0,0,0-1-2.4,3.16,3.16,0,0,0-2.3-1h-3.6v29.41Q318.29,367.67,322.14,368ZM251.26,379.6a15.45,15.45,0,0,0-7.4-.65,10.41,10.41,0,0,0-6.7,3.56,11.08,11.08,0,0,0-2.35,4.5,20.14,20.14,0,0,0-.75,5.41,22.4,22.4,0,0,0,.9,6.35,9.91,9.91,0,0,0,3,4.85,11.62,11.62,0,0,0,5.35,2.55A13.49,13.49,0,0,0,250,406a10,10,0,0,0,6.1-4.1,13.91,13.91,0,0,0,1.8-3.9,19,19,0,0,0,.7-5.5,16.58,16.58,0,0,0-1.7-7.7A10.16,10.16,0,0,0,251.26,379.6Zm-0.8,18.8a5.14,5.14,0,0,1-2.75,2.25,4.83,4.83,0,0,1-3.06-.1,4.48,4.48,0,0,1-2.09-1.35q-1.5-1.8-1.7-6.35t1.9-6.85a5.23,5.23,0,0,1,2.2-1.15,4.85,4.85,0,0,1,3,0,5.19,5.19,0,0,1,2.65,2.3,10.23,10.23,0,0,1,1.15,5.4Q251.67,396.61,250.46,398.41Zm-26.93-8.7a3.66,3.66,0,0,1-.85-0.1c-0.3-.07-0.65-0.17-1.05-0.3-3.47-.73-5.2-1.63-5.2-2.7a2,2,0,0,1,.9-1.79,5.88,5.88,0,0,1,3-.6,5.4,5.4,0,0,1,3.3.9l0.8,0.81a3.17,3.17,0,0,0,2.9,1.7h4.3a8.81,8.81,0,0,0-3.1-6.5,13.64,13.64,0,0,0-8.3-2.3,12.45,12.45,0,0,0-7.8,2.3,8,8,0,0,0-2.9,6.3,6.12,6.12,0,0,0,2,4.79q1.8,1.8,7.1,3.11a18.93,18.93,0,0,0,2.7.6c2.8,0.6,4.2,1.5,4.2,2.7a2.13,2.13,0,0,1-1.2,1.9,6.47,6.47,0,0,1-3.1.69,7.14,7.14,0,0,1-4-1,3.65,3.65,0,0,1-1.5-3h-6.81v0.3a8,8,0,0,0,2.9,6.7q2.79,2.3,8.5,2.3,6,0,9-2.2a8,8,0,0,0,3.2-6.8,6.3,6.3,0,0,0-1.9-4.81Q228.63,391,223.53,389.7Zm40.74-18.1h-3.6V406h7v-31.1a3.13,3.13,0,0,0-1-2.35A3.38,3.38,0,0,0,264.27,371.6Zm128.42,21.1q-2-1.7-7.1-3a3.69,3.69,0,0,1-.85-0.1,10.69,10.69,0,0,1-1-.3q-5.2-1.09-5.21-2.7a2,2,0,0,1,.91-1.79,5.87,5.87,0,0,1,3-.6,5.4,5.4,0,0,1,3.3.9l0.8,0.81a3.17,3.17,0,0,0,2.9,1.7h4.3a8.77,8.77,0,0,0-3.1-6.5,13.63,13.63,0,0,0-8.3-2.3,12.5,12.5,0,0,0-7.8,2.3,8,8,0,0,0-2.9,6.3,6.12,6.12,0,0,0,2,4.79q1.81,1.8,7.11,3.11a19.13,19.13,0,0,0,2.7.6q4.2,0.91,4.2,2.7a2.13,2.13,0,0,1-1.2,1.9,6.49,6.49,0,0,1-3.1.69,7.16,7.16,0,0,1-4-1,3.67,3.67,0,0,1-1.5-3H371v0.3a8,8,0,0,0,2.91,6.7q2.79,2.3,8.5,2.3,6,0,9-2.2a8,8,0,0,0,3.2-6.8A6.3,6.3,0,0,0,392.69,392.71Zm-56.35-13.1a15.45,15.45,0,0,0-7.4-.65,10.4,10.4,0,0,0-6.7,3.56,11.12,11.12,0,0,0-2.35,4.5,20.25,20.25,0,0,0-.75,5.41,22.31,22.31,0,0,0,.9,6.35,9.89,9.89,0,0,0,3,4.85,11.57,11.57,0,0,0,5.35,2.55A13.49,13.49,0,0,0,335,406a10,10,0,0,0,6.11-4.1,14.07,14.07,0,0,0,1.8-3.9,19,19,0,0,0,.7-5.5,16.58,16.58,0,0,0-1.7-7.7A10.19,10.19,0,0,0,336.34,379.6Zm-0.8,18.8a5.12,5.12,0,0,1-2.75,2.25,4.79,4.79,0,0,1-3-.1,4.47,4.47,0,0,1-2.1-1.35c-1-1.2-1.57-3.32-1.7-6.35s0.5-5.32,1.9-6.85a5.25,5.25,0,0,1,2.2-1.15,4.85,4.85,0,0,1,3,0,5.2,5.2,0,0,1,2.65,2.3,10.2,10.2,0,0,1,1.15,5.4Q336.75,396.61,335.54,398.41Zm29.95-17.3a15,15,0,0,0-8.09-2.3,15.48,15.48,0,0,0-7.85,2.5q-3.56,2.31-3.55,9.1V406h7V389a4.18,4.18,0,0,1,1.4-3.5,5,5,0,0,1,3.2-1.1,5.22,5.22,0,0,1,3.25,1.1,4.11,4.11,0,0,1,1.45,3.5v13.6a3.25,3.25,0,0,0,3.4,3.4h3.5v-15.6Q369.19,383.41,365.49,381.11Zm-52.2-9.5h-3.6v5.5h7V375A3.43,3.43,0,0,0,313.29,371.6Zm0,7.81h-3.6V406h7v-23.2A3.42,3.42,0,0,0,313.29,379.41Zm-25.65,1a3.36,3.36,0,0,0-1,2.4v13.6a4.11,4.11,0,0,1-1.45,3.5A5.25,5.25,0,0,1,282,401a5.05,5.05,0,0,1-3.2-1.1,4.18,4.18,0,0,1-1.4-3.5v-17h-7V395q0,6.91,3.55,9.1a16,16,0,0,0,7.85,2.4,15.57,15.57,0,0,0,8.1-2.2q3.7-2.2,3.7-9.3v-15.6h-3.5A3.22,3.22,0,0,0,287.64,380.4Zm15.78-5.4a3.28,3.28,0,0,0-1-2.4,3.14,3.14,0,0,0-2.3-1h-3.6V401c0,3.07,1.28,4.7,3.85,4.91a52,52,0,0,0,7.15.09v-5.2h-2.1c-1.34,0-2-.57-2-1.7v-14.8h0.7a3.41,3.41,0,0,0,2.4-.95,3.26,3.26,0,0,0,1-2.46v-1.4h-4.1V375Z" transform="translate(-202.8 -333.66)"/></svg>